<?xml version="1.0" encoding="UTF-8"?>
<svg width="23px" height="22px" viewBox="0 0 23 22" version="1.1" xmlns="http://www.w3.org/2000/svg" xmlns:xlink="http://www.w3.org/1999/xlink">
    <!-- Generator: Sketch 42 (36781) - http://www.bohemiancoding.com/sketch -->
    <title>icons/create</title>
    <desc>Created with Sketch.</desc>
    <defs></defs>
    <g id="Page-1" stroke="none" stroke-width="1" fill="none" fill-rule="evenodd">
        <g id="styleguide" transform="translate(-934.000000, -180.000000)" fill="#283150">
            <g id="icons/create" transform="translate(934.000000, 180.000000)">
                <path d="M22.7671336,6.07423503 C22.3960502,5.6070959 21.7165328,5.52921209 21.2493847,5.90027582 L18.1525394,8.36020694 C18.1525394,8.36020694 14.0491336,5.5179276 13.9237859,5.46568652 C13.6948617,5.34708231 13.4384659,5.27439918 13.1627375,5.27633106 L7.92921311,5.32428693 C7.71536661,5.33607521 7.50338047,5.3717488 7.2987934,5.43004331 C6.88936366,5.54609814 6.50954316,5.75404609 6.19612696,6.03348422 C6.11802754,6.10359843 6.04352434,6.1772166 5.97337,6.25463873 L5.60715701,6.72867429 L3.16472845,10.0411754 C2.87357349,10.4362275 2.91373814,10.9957214 3.27766934,11.3441741 C3.67300901,11.7227193 4.30035541,11.7091119 4.67890165,11.3137933 L7.75199589,8.09654517 C7.76890249,8.07938183 7.7973925,8.04737687 7.80481233,8.04241339 C7.80922103,8.04150876 7.81181161,8.04024533 7.81594291,8.03850748 L7.84394976,8.027469 C7.8817512,8.01605024 7.91891471,8.01344013 7.951639,8.01842519 C7.8374543,8.02310152 10.1215041,8.25766834 10.1215041,8.25766834 L0.302664723,19.7393346 C-0.102952315,20.2125792 -0.105234114,20.9247357 0.322161413,21.4013931 C0.787285892,21.9201461 1.58486109,21.9636002 2.10358319,21.4985066 L9.13259994,15.1961388 C9.87739931,15.6246237 11.6155116,16.6483585 11.6155116,16.6483585 C11.6155116,16.6483585 8.95986387,18.1144318 8.04897785,18.6007594 C7.48384207,18.9048436 7.22703456,19.5971461 7.48088201,20.2008017 C7.7506599,20.8423422 8.48940595,21.1437133 9.13092478,20.873956 C10.0827675,20.4737034 14.1585479,18.8365584 14.1585479,18.8365584 L14.5191593,18.6941815 C14.5191593,18.6941815 14.8650018,18.544632 14.918075,18.514908 C15.0237706,18.458361 15.127553,18.3813604 15.2255603,18.3047517 C16.0293021,17.6480836 16.2766649,16.4760421 15.7786206,15.5435005 C15.6584853,15.3116477 15.4936317,15.1009052 15.3066306,14.9294846 C15.3066306,14.9294846 12.7030288,12.7262062 12.2873604,12.367508 C12.2873604,12.367508 15.1102357,9.83338337 15.1454662,9.79778134 L16.5445913,10.5751404 C16.5445913,10.5751404 17.2139425,10.9484654 17.3436773,10.9941178 C17.8981667,11.2059501 18.5296743,11.1690435 19.0485312,10.9019483 C19.1783679,10.8360998 19.3011241,10.756386 19.4131808,10.6653986 L19.5919506,10.5034227 L19.828912,10.2741183 L22.6724646,7.52241565 C23.064682,7.14028299 23.1150323,6.51221665 22.7671336,6.07423503 Z M14.4225595,2.61931649 C14.4225595,1.17271933 15.5952793,0 17.041875,0 C18.488504,0 19.661212,1.17271884 19.661212,2.61931649 C19.661212,4.065945 18.4884922,5.23865306 17.041875,5.23865306 C15.5952793,5.23866384 14.4225595,4.065945 14.4225595,2.61931649 Z" id="Fill-2"></path>
            </g>
        </g>
    </g>
</svg>