<?xml version="1.0" encoding="UTF-8"?>
<svg width="22px" height="22px" viewBox="0 0 22 22" version="1.1" xmlns="http://www.w3.org/2000/svg" xmlns:xlink="http://www.w3.org/1999/xlink">
    <!-- Generator: Sketch 42 (36781) - http://www.bohemiancoding.com/sketch -->
    <title>icons/edit</title>
    <desc>Created with Sketch.</desc>
    <defs></defs>
    <g id="Page-1" stroke="none" stroke-width="1" fill="none" fill-rule="evenodd">
        <g id="styleguide" transform="translate(-972.000000, -180.000000)" fill="#283150">
            <g id="icons/edit" transform="translate(972.000000, 180.000000)">
                <g id="Page-1">
                    <path d="M11,19.2941467 C6.41926925,19.2941467 2.7058532,15.5807307 2.7058532,11 C2.7058532,6.41926925 6.41926925,2.7058532 11,2.7058532 C15.5807307,2.7058532 19.2941467,6.41926925 19.2941467,11 C19.2941467,15.5807307 15.5807307,19.2941467 11,19.2941467 Z M10.3134354,0.695200235 L10.3134354,1.99142459 C10.3134354,2.36203343 10.6208254,2.67166466 11,2.67166466 C11.3818265,2.67166466 11.6865645,2.3671147 11.6865645,1.99142459 L11.6865645,1.41223566 C16.67465,1.76427113 20.6119124,5.92234133 20.6119124,11 C20.6119124,16.3085115 16.3085138,20.6119124 11.0000011,20.6119124 C5.69148835,20.6119124 1.38810043,16.3085115 1.38810043,11 C1.38810043,8.3179353 2.48661051,5.89244445 4.25826131,4.14889465 C4.3098059,4.08695475 4.67208394,3.61931039 4.25235982,3.17959238 C3.88345184,2.79313212 3.46420775,3.03951985 3.32435791,3.14151804 C1.2824885,5.13617327 0.0149601643,7.9200704 0.0149601643,11 C0.0149601643,17.0668719 4.93312804,21.9850414 11,21.9850414 C17.0668719,21.9850414 21.9850392,17.0668719 21.9850392,11 C21.9850392,4.93312804 17.0668719,0.0149601643 11,0.0149601643 C10.6155102,0.0176356459 10.3134354,0.321165105 10.3134354,0.695200235 Z M9.88880675,12.2550679 C10.1924538,12.7384104 10.7303454,13.0596935 11.3432823,13.0596935 C12.291231,13.0596935 13.0596935,12.291231 13.0596935,11.3432823 C13.0596935,10.7456686 12.7542753,10.2193932 12.2910184,9.91202667 L12.3002411,9.90302673 L6.1059802,5.85647052 C5.78582494,5.64731223 5.69504343,5.73797523 5.90031881,6.05706405 L9.88803364,12.2558198 L9.88880675,12.2550679 Z" id="Fill-2"></path>
                </g>
            </g>
        </g>
    </g>
</svg>