<?xml version="1.0" encoding="UTF-8"?>
<svg width="21px" height="19px" viewBox="0 0 21 19" version="1.1" xmlns="http://www.w3.org/2000/svg" xmlns:xlink="http://www.w3.org/1999/xlink">
    <!-- Generator: Sketch 42 (36781) - http://www.bohemiancoding.com/sketch -->
    <title>fb</title>
    <desc>Created with Sketch.</desc>
    <defs></defs>
    <g id="Page-1" stroke="none" stroke-width="1" fill="none" fill-rule="evenodd">
        <g id="styleguide" transform="translate(-937.000000, -273.000000)" fill="#283150">
            <g id="fb" transform="translate(937.000000, 273.000000)">
                <g id="icons/fb">
                    <path d="M20.4038263,1.61204437 L18.4678279,17.3879552 C18.4015054,17.9283991 17.9117626,18.3666667 17.3741615,18.3666667 L12.8793216,18.3666667 L13.7220332,11.4996444 L16.0152329,11.4996444 L16.6871937,8.82360025 L14.0504337,8.82360025 L14.2600753,7.11528931 C14.3552068,6.34008914 14.6341743,5.81231136 15.7396143,5.81231136 L17.1492376,5.81146658 L17.443026,3.41746661 C17.2034667,3.38453324 16.3748991,3.31191105 15.4021799,3.31191105 C13.3693798,3.31191105 11.8252796,4.55915569 11.5442375,6.84928889 L11.3020564,8.82275547 L9.00213722,8.82275547 L8.67373661,11.4988004 L10.9728162,11.4988004 L10.130001,18.3666667 L1.68128173,18.3666667 C1.14368185,18.3666667 0.761505204,17.9284008 0.827827948,17.3879552 L2.76382632,1.61204437 C2.83014891,1.07160004 3.31989245,0.633333333 3.85749233,0.633333333 L19.5503721,0.633333333 C20.0879732,0.633333333 20.4701489,1.07160004 20.4038263,1.61204437 Z" id="Fill-2"></path>
                </g>
            </g>
        </g>
    </g>
</svg>