<?xml version="1.0" encoding="utf-8"?>
<!-- Generator: Adobe Illustrator 17.1.0, SVG Export Plug-In . SVG Version: 6.00 Build 0)  -->
<!DOCTYPE svg PUBLIC "-//W3C//DTD SVG 1.1//EN" "http://www.w3.org/Graphics/SVG/1.1/DTD/svg11.dtd">
<svg version="1.1" id="Layer_1" xmlns="http://www.w3.org/2000/svg" xmlns:xlink="http://www.w3.org/1999/xlink" x="0px" y="0px"
	 width="640px" height="120px" viewBox="0 0 640 120" enable-background="new 0 0 640 120" xml:space="preserve">
<image display="none" overflow="visible" width="640" height="1334" xlink:href="../../../../../../../Desktop/kach/320-body.jpg"  transform="matrix(1 0 0 1 0 -918.0778)">
</image>
<path fill="none" stroke="#000000" stroke-width="4" stroke-miterlimit="10" d="M503.4,61.5c20.4-6.5,40.4-15.7,56.2-30.3"/>
<path fill="none" stroke="#000000" stroke-width="4" stroke-miterlimit="10" d="M396.9,81.6c22.4-2.6,44.7-5.6,66.8-10.1"/>
<path fill="none" stroke="#000000" stroke-width="4" stroke-miterlimit="10" d="M285.1,84.8c23.4,0.1,46.9,0.6,70.3-0.1"/>
<path fill="none" stroke="#000000" stroke-width="4" stroke-miterlimit="10" d="M176.5,71.6c22,4.9,44.2,8.2,66.6,10.4"/>
<path fill="none" stroke="#000000" stroke-width="4" stroke-miterlimit="10" d="M78.5,31.3c16,14.7,36.9,22.4,57.2,29.1"/>
<path fill="none" stroke="#000000" stroke-width="4" stroke-miterlimit="10" d="M78.5,31.5c1.4,1.3,4.6,4.7,6.8,3.7"/>
</svg>
