<?xml version="1.0" encoding="UTF-8"?>
<svg width="18px" height="20px" viewBox="0 0 18 20" version="1.1" xmlns="http://www.w3.org/2000/svg" xmlns:xlink="http://www.w3.org/1999/xlink">
    <!-- Generator: Sketch 42 (36781) - http://www.bohemiancoding.com/sketch -->
    <title>icons/delete</title>
    <desc>Created with Sketch.</desc>
    <defs></defs>
    <g id="Page-1" stroke="none" stroke-width="1" fill="none" fill-rule="evenodd" stroke-linejoin="round">
        <g id="styleguide" transform="translate(-1114.000000, -180.000000)" stroke="#283150">
            <g id="icons/delete" transform="translate(1114.000000, 180.000000)">
                <path d="M17.2998809,3.4736715 C17.299879,4.22483837 16.4861869,4.86599978 14.8588047,5.39715468 C13.2314224,5.92830963 11.2669963,6.19388761 8.9655303,6.19388861 C6.6640625,6.19388761 4.6996383,5.92830963 3.07225513,5.39715468 C1.4448719,4.86599978 0.63118028,4.22483837 0.63118076,3.4736715 C0.63118028,2.72250415 1.4448719,2.08134275 3.07225513,1.5501873 C4.6996383,1.01903234 6.6640625,0.753454852 8.9655303,0.753455334 C11.2669963,0.753454852 13.2314224,1.01903234 14.8588047,1.5501873 C16.4861869,2.08134275 17.299879,2.72250415 17.2998809,3.4736715 Z" id="Stroke-2"></path>
                <path d="M16.6109294,4.56679566 L14.2297,17.5834138 C12.6016101,20.1585669 5.3294601,20.1585669 3.70137023,17.5834138 L1.32013988,4.56679566 C1.32013988,4.56679566 3.54648966,6.20137416 9.07254456,6.27841903 C14.5985995,6.3554639 16.6109294,4.56679566 16.6109294,4.56679566 Z" id="Stroke-3" fill="#283150" fill-rule="evenodd"></path>
            </g>
        </g>
    </g>
</svg>