<?xml version="1.0" encoding="UTF-8"?>
<svg width="26px" height="16px" viewBox="0 0 26 16" version="1.1" xmlns="http://www.w3.org/2000/svg" xmlns:xlink="http://www.w3.org/1999/xlink">
    <!-- Generator: Sketch 42 (36781) - http://www.bohemiancoding.com/sketch -->
    <title>google</title>
    <desc>Created with Sketch.</desc>
    <defs></defs>
    <g id="Page-1" stroke="none" stroke-width="1" fill="none" fill-rule="evenodd">
        <g id="styleguide" transform="translate(-972.000000, -274.000000)" fill="#283150">
            <g id="google" transform="translate(972.000000, 274.000000)">
                <g id="icons/google">
                    <path d="M8.69402525,6.8640003 L8.32418929,9.5909996 L12.835189,9.5909996 C12.4945132,10.7609996 11.0057405,13.0229988 7.85874115,13.0229988 C5.14274109,13.0229988 3.23188628,10.7729988 3.60796083,7.999999 C3.98403539,5.2269992 6.50518072,2.97699928 9.22118078,2.97699928 C10.7661809,2.97699928 11.711807,3.6359996 12.224775,4.2039995 L14.6658651,2.12399959 C13.4554936,0.82899951 11.7658192,0.04499959 9.61881893,0.04499959 C5.22081912,0.04500007 1.18141819,3.6020002 0.584960938,8 C-0.0114961751,12.3979988 3.06310308,15.9549999 7.46110282,15.9549999 C12.0521024,15.9549999 15.5347485,12.7280006 16.1512777,8.1820001 C16.222207,7.6590003 16.2190489,7.262 16.2050249,6.8640003 L8.69402525,6.8640003 Z M25.4308965,9.1359996 L23.1578957,9.1359996 L22.8496311,11.4090003 L20.5766304,11.4090003 L20.884895,9.1359996 L18.6118943,9.1359996 L18.9201588,6.8629999 L21.1931595,6.8629999 L21.501424,4.5900001 L23.7744247,4.5900001 L23.4661602,6.8629999 L25.739161,6.8629999 L25.4308965,9.1359996 Z" id="Fill-2"></path>
                </g>
            </g>
        </g>
    </g>
</svg>