<?xml version="1.0" encoding="UTF-8"?>
<svg width="18px" height="25px" viewBox="0 0 18 25" version="1.1" xmlns="http://www.w3.org/2000/svg" xmlns:xlink="http://www.w3.org/1999/xlink">
    <!-- Generator: Sketch 42 (36781) - http://www.bohemiancoding.com/sketch -->
    <title>icons/share</title>
    <desc>Created with Sketch.</desc>
    <defs></defs>
    <g id="Page-1" stroke="none" stroke-width="1" fill="none" fill-rule="evenodd">
        <g id="styleguide" transform="translate(-1045.000000, -178.000000)" fill="#283150">
            <g id="icons/share" transform="translate(1045.000000, 178.000000)">
                <path d="M17.5927536,7.94866539 C15.2294181,6.18973683 14.7425514,3.53650842 14.4827205,0.613038944 C14.4685225,0.453231599 14.3353166,0.330052194 14.1749075,0.330052194 L12.7470214,0.330052194 C12.5874726,0.330052194 12.4561321,0.452961844 12.4406701,0.61178415 C12.2108414,2.97066992 11.4929433,4.89955845 10.0957833,5.82239715 C9.43550215,6.25842948 8.56449474,6.25842948 7.90421264,5.82239715 C6.50705464,4.89955845 5.78915455,2.97066992 5.55932681,0.611783901 C5.5438649,0.452971987 5.41252427,0.330051945 5.2529756,0.330051945 L3.82501729,0.330051945 C3.66467045,0.330051945 3.53147351,0.453231101 3.51727648,0.61297639 C3.25744657,3.5365188 2.77057887,6.18973683 0.407243862,7.94866539 C0.183720972,8.11504813 0.05934884,8.38350498 0.05934884,8.6621783 L0.05934884,23.1781966 C0.05934884,23.6952633 0.478456988,24.114372 0.995523655,24.114372 L17.0044733,24.114372 C17.52154,24.114372 17.9406486,23.6952633 17.9406486,23.1781966 L17.9406486,8.6621783 C17.9406486,8.38350498 17.8162765,8.1150471 17.5927536,7.94866539 Z M11.6884657,15.1966106 L11.6884657,16.1363007 L11.6884657,18.5733698 L10.3755247,19.8229262 L6.31153219,19.8229262 L6.31153219,17.0827636 L8.22728182,17.0827636 L8.22728182,18.0296299 L9.77270615,18.0296299 L9.77270615,16.1363107 L6.31153313,16.1363107 L6.31153313,11.902286 L7.84295724,10.5340611 L11.6884657,10.5340611 L11.6884657,15.1966106 Z" id="Fill-2"></path>
                <polygon id="Fill-3" points="8.22728286 12.3531791 9.77270615 12.3531791 9.77270615 14.3011186 8.22728286 14.3011186"></polygon>
            </g>
        </g>
    </g>
</svg>